# xmcd
#
# Track frame offsets:
# 150
# 13970
# 26363
# 42974
# 59550
# 74110
# 87710
# 99645
# 112755
# 125266
# 140776
# 161310
# 180796
# 198892
# 214340
# 230908
# 252541
# 270739
# 288708
# 298901
#
# Disc length: 4231 seconds
#
# Revision: 1
# Processed by: cddbd v1.5.1PL0 Copyright (c) Steve Scherf et al.
# Submitted via: CedeCatalogueitor 2.6.0.4 http://personales.ya.com/cdcatalogueitor
#
DISCID=3e108514
DTITLE=Varios - Top 100 Country CD 3
DYEAR=1900
DGENRE=
TTITLE0=Time Marches On
TTITLE1=Thrill Of The Chase
TTITLE2=What Mattered Most
TTITLE3=Breaking Hearts &taking Names
TTITLE4=Amazing Grace
TTITLE5=Drink, Swear, Steal and Lie
TTITLE6=It's A Little Too Late
TTITLE7=Girls Night Out
TTITLE8=To Much Fun
TTITLE9=Don't Make Me Beg
TTITLE10=But For The Grace Of God
TTITLE11=Goodbye Earl
TTITLE12=I Want The First To Last
TTITLE13=Where You Road Leads
TTITLE14=It´s All In Your Head
TTITLE15=Holes In The Floor Of Heaven
TTITLE16=I'm Moovin' On
TTITLE17=Hole In My Heart
TTITLE18=Rub 'a' Dubbin
TTITLE19=God Blessed Texas
EXTD=
EXTT0=
EXTT1=
EXTT2=
EXTT3=
EXTT4=
EXTT5=
EXTT6=
EXTT7=
EXTT8=
EXTT9=
EXTT10=
EXTT11=
EXTT12=
EXTT13=
EXTT14=
EXTT15=
EXTT16=
EXTT17=
EXTT18=
EXTT19=
PLAYORDER=
